===========Visit DUSTorrents.com for more Exclusives==============

Visit DusTorrents.com for more exclusives....

DusTorrents.com a Complete FreeLeech Site!! Registrations are absolutely FREE!!

Register by visiting..... www.dustorrents.com

========================================================

[CENTER][B][FONT=Comic Sans MS][SIZE=5][COLOR=#FF0000]Tango Charlie (2005) 1/3 DvD RiP XviD 5.1 AC3 [DUSTorrents] [Team DUS][/COLOR][/SIZE][/FONT][/B]

[IMG]http://i897.photobucket.com/albums/ac175/drmasoom/DUS%20Banners/BG-banner.jpg[/IMG]

[IMG]http://i.indiafm.com/firstlook/tangocharlie.jpg[/IMG][/CENTER]

[CODE]
[B][FONT=Comic Sans MS][COLOR=#FF0000]Source                           : DvD 9 @ DRs Thanks.
Ripper                           : I Proud To Be An Indian [Team DUS][/COLOR][/FONT][/B]
General
Complete name                    : D:\Download\Tango Charlie (2005) DvD RiP XviD 5.1 AC3 [DUSTorrents] [Team DUS]\Tango Charlie (2005) DvD RiP XviD 5.1 AC3 [DUSTorrents] [Team DUS].avi
Format                           : AVI
Format/Info                      : Audio Video Interleave
Format profile                   : OpenDML
Format settings                  : rec
File size                        : 1.45 GiB
Duration                         : 2h 23mn
Overall bit rate                 : 1 447 Kbps
Writing application              : AVI-Mux GUI 1.17.8.3, Feb 16 201019:42:50

Video
ID                               : 0
Format                           : MPEG-4 Visual
Format profile                   : Advanced Simple@L5
Format settings, BVOP            : 2
Format settings, QPel            : No
Format settings, GMC             : No warppoints
Format settings, Matrix          : Default (H.263)
Codec ID                         : XVID
Codec ID/Hint                    : XviD
Duration                         : 2h 23mn
Bit rate                         : 1 057 Kbps
Width                            : 704 pixels
Height                           : 304 pixels
Display aspect ratio             : 2.35:1
Frame rate                       : 23.976 fps
Color space                      : YUV
Chroma subsampling               : 4:2:0
Bit depth                        : 8 bits
Scan type                        : Progressive
Compression mode                 : Lossy
Bits/(Pixel*Frame)               : 0.206
Stream size                      : 1.06 GiB (73%)
Writing library                  : XviD 1.2.1 (UTC 2008-12-04)

Audio
ID                               : 1
Format                           : AC-3
Format/Info                      : Audio Coding 3
Mode extension                   : CM (complete main)
Codec ID                         : 2000
Duration                         : 2h 23mn
Bit rate mode                    : Constant
Bit rate                         : 384 Kbps
Channel(s)                       : 6 channels
Channel positions                : Front: L C R, Side: L R, LFE
Sampling rate                    : 48.0 KHz
Bit depth                        : 16 bits
Compression mode                 : Lossy
Stream size                      : 395 MiB (27%)
Alignment                        : Aligned on interleaves
Interleave, duration             : 64 ms (1.53 video frames)
Interleave, preload duration     : 192 ms
Title                            : VTS_01_1 T80 3_2ch 384Kbps DELAY 0ms[/CODE]

[CENTER][IMG]http://img21.imageshack.us/img21/3431/5vh6rom324kkccccthg.gif[/IMG]

[IMG]http://img28.imageshack.us/img28/6762/24549240.png[/IMG]

[IMG]http://img850.imageshack.us/img850/9990/37614024.png[/IMG]

[IMG]http://img809.imageshack.us/img809/2673/61448669.png[/IMG]

[IMG]http://img402.imageshack.us/img402/6172/81352587.png[/IMG]

[IMG]http://img89.imageshack.us/img89/7439/43911513.png[/IMG]

[IMG]http://img577.imageshack.us/img577/8089/36043491.png[/IMG]

[IMG]http://img94.imageshack.us/img94/7910/38714349.png[/IMG]

[B][FONT=Comic Sans MS][SIZE=4][COLOR=#FF0000]Sample Included In Torrent. Enjoy.[/COLOR][/SIZE][/FONT][/B]

:groupwave:[/CENTER]